<svg id="svg" version="1.1" xmlns="http://www.w3.org/2000/svg" xmlns:xlink="http://www.w3.org/1999/xlink" width="400" height="400" viewBox="0, 0, 400,400"><g id="svgg"><path id="path0" d="M0.000 200.000 L 0.000 400.000 200.000 400.000 L 400.000 400.000 400.000 200.000 L 400.000 0.000 200.000 0.000 L 0.000 0.000 0.000 200.000 M118.702 66.900 L 118.600 118.600 66.900 118.702 L 15.200 118.803 15.200 67.002 L 15.200 15.200 67.002 15.200 L 118.803 15.200 118.702 66.900 M148.305 30.100 L 148.410 44.800 155.805 44.800 L 163.200 44.800 163.200 51.791 L 163.200 58.782 170.300 58.891 L 177.400 59.000 177.600 88.800 L 177.800 118.600 185.300 118.709 L 192.800 118.818 192.800 111.209 L 192.800 103.600 200.009 103.600 L 207.218 103.600 207.109 111.100 L 207.000 118.600 199.900 118.709 L 192.800 118.818 192.800 126.009 L 192.800 133.200 200.009 133.200 L 207.218 133.200 207.109 140.700 L 207.000 148.200 200.000 148.200 L 193.000 148.200 192.891 140.700 L 192.782 133.200 185.200 133.200 L 177.618 133.200 177.509 140.700 L 177.400 148.200 170.400 148.200 L 163.400 148.200 163.297 125.900 L 163.193 103.600 155.805 103.600 L 148.418 103.600 148.309 111.100 L 148.200 118.600 140.700 118.709 L 133.200 118.818 133.200 104.018 L 133.200 89.218 140.700 89.109 L 148.200 89.000 148.200 81.600 L 148.200 74.200 140.700 74.091 L 133.200 73.982 133.200 44.582 L 133.200 15.182 140.700 15.291 L 148.200 15.400 148.305 30.100 M222.400 30.000 L 222.400 44.800 229.600 44.800 L 236.800 44.800 236.800 59.400 L 236.800 74.000 251.800 74.000 L 266.800 74.000 266.800 103.609 L 266.800 133.218 259.300 133.109 L 251.800 133.000 251.697 111.100 L 251.593 89.200 244.194 89.200 L 236.795 89.200 236.897 118.700 L 237.000 148.200 251.900 148.305 L 266.800 148.410 266.800 163.005 L 266.800 177.600 273.991 177.600 L 281.182 177.600 281.291 170.500 L 281.400 163.400 288.900 163.291 L 296.400 163.182 296.400 148.191 L 296.400 133.200 303.591 133.200 L 310.782 133.200 310.891 140.700 L 311.000 148.200 318.400 148.200 L 325.800 148.200 325.909 140.700 L 326.018 133.200 355.418 133.200 L 384.818 133.200 384.709 140.700 L 384.600 148.200 377.500 148.309 L 370.400 148.418 370.400 155.809 L 370.400 163.200 362.791 163.200 L 355.182 163.200 355.291 170.300 L 355.400 177.400 362.891 177.509 L 370.382 177.618 370.491 185.109 L 370.600 192.600 377.700 192.709 L 384.800 192.818 384.800 200.000 L 384.800 207.182 377.700 207.291 L 370.600 207.400 370.491 214.900 L 370.382 222.400 362.782 222.400 L 355.182 222.400 355.291 229.500 L 355.400 236.600 362.900 236.709 L 370.400 236.818 370.400 244.200 L 370.400 251.582 362.900 251.691 L 355.400 251.800 355.295 266.500 L 355.190 281.200 348.195 281.200 L 341.200 281.200 341.200 288.800 L 341.200 296.400 363.003 296.400 L 384.807 296.400 384.703 318.700 L 384.600 341.000 377.500 341.109 L 370.400 341.218 370.400 355.809 L 370.400 370.400 377.600 370.400 L 384.800 370.400 384.800 377.600 L 384.800 384.800 363.009 384.800 L 341.218 384.800 341.109 377.700 L 341.000 370.600 311.100 370.497 L 281.200 370.395 281.200 377.597 L 281.200 384.800 273.991 384.800 L 266.782 384.800 266.891 377.700 L 267.000 370.600 274.109 370.491 L 281.218 370.381 281.109 362.891 L 281.000 355.400 266.300 355.295 L 251.600 355.190 251.600 348.195 L 251.600 341.200 244.200 341.200 L 236.800 341.200 236.800 348.191 L 236.800 355.182 229.700 355.291 L 222.600 355.400 222.495 370.100 L 222.390 384.800 207.595 384.800 L 192.800 384.800 192.800 377.591 L 192.800 370.382 185.300 370.491 L 177.800 370.600 177.691 377.700 L 177.582 384.800 155.386 384.800 L 133.190 384.800 133.295 370.100 L 133.400 355.400 140.800 355.400 L 148.200 355.400 148.309 362.900 L 148.418 370.400 155.818 370.400 L 163.218 370.400 163.109 362.900 L 163.000 355.400 155.700 355.291 L 148.400 355.182 148.400 340.591 L 148.400 326.000 140.800 326.000 L 133.200 326.000 133.200 311.209 L 133.200 296.418 140.700 296.309 L 148.200 296.200 148.309 288.700 L 148.418 281.200 140.804 281.200 L 133.190 281.200 133.295 266.500 L 133.400 251.800 140.909 251.691 L 148.418 251.582 148.309 244.291 L 148.200 237.000 125.900 236.897 L 103.600 236.793 103.600 244.188 L 103.600 251.582 111.100 251.691 L 118.600 251.800 118.709 259.300 L 118.818 266.800 104.009 266.800 L 89.200 266.800 89.200 251.800 L 89.200 236.800 81.600 236.800 L 74.000 236.800 74.000 251.809 L 74.000 266.818 66.500 266.709 L 59.000 266.600 58.895 251.700 L 58.790 236.800 51.795 236.800 L 44.800 236.800 44.800 214.800 L 44.800 192.800 37.205 192.800 L 29.610 192.800 29.505 207.500 L 29.400 222.200 22.300 222.309 L 15.200 222.418 15.200 200.004 L 15.200 177.590 29.900 177.695 L 44.600 177.800 44.709 185.300 L 44.818 192.800 67.014 192.800 L 89.210 192.800 89.105 178.100 L 89.000 163.400 59.300 163.297 L 29.600 163.195 29.600 155.807 L 29.600 148.418 22.500 148.309 L 15.400 148.200 15.291 140.695 L 15.182 133.190 29.891 133.295 L 44.600 133.400 44.709 140.905 L 44.818 148.410 59.309 148.305 L 73.800 148.200 73.909 140.700 L 74.018 133.200 96.409 133.200 L 118.800 133.200 118.800 140.800 L 118.800 148.400 126.000 148.400 L 133.200 148.400 133.200 177.791 L 133.200 207.182 140.700 207.291 L 148.200 207.400 148.309 214.900 L 148.418 222.400 155.800 222.400 L 163.182 222.400 163.291 214.900 L 163.400 207.400 170.491 207.291 L 177.582 207.182 177.691 200.091 L 177.800 193.000 185.291 192.891 L 192.782 192.782 192.891 185.291 L 193.000 177.800 200.091 177.691 L 207.182 177.582 207.291 170.491 L 207.400 163.400 214.902 163.291 L 222.403 163.182 222.302 118.691 L 222.200 74.200 214.700 74.091 L 207.200 73.982 207.200 81.591 L 207.200 89.200 200.000 89.200 L 192.800 89.200 192.800 67.009 L 192.800 44.818 185.300 44.709 L 177.800 44.600 177.691 37.105 L 177.582 29.610 192.291 29.505 L 207.000 29.400 207.109 22.300 L 207.218 15.200 214.809 15.200 L 222.400 15.200 222.400 30.000 M266.800 22.400 L 266.800 29.600 251.800 29.600 L 236.800 29.600 236.800 22.400 L 236.800 15.200 251.800 15.200 L 266.800 15.200 266.800 22.400 M384.800 67.002 L 384.800 118.803 333.100 118.702 L 281.400 118.600 281.298 66.900 L 281.197 15.200 332.998 15.200 L 384.800 15.200 384.800 67.002 M29.600 66.600 L 29.600 103.600 66.600 103.600 L 103.600 103.600 103.600 66.600 L 103.600 29.600 66.600 29.600 L 29.600 29.600 29.600 66.600 M296.400 66.600 L 296.400 103.600 333.400 103.600 L 370.400 103.600 370.400 66.600 L 370.400 29.600 333.400 29.600 L 296.400 29.600 296.400 66.600 M89.200 67.000 L 89.200 89.200 67.000 89.200 L 44.800 89.200 44.800 67.000 L 44.800 44.800 67.000 44.800 L 89.200 44.800 89.200 67.000 M207.200 51.800 L 207.200 58.800 214.800 58.800 L 222.400 58.800 222.400 51.800 L 222.400 44.800 214.800 44.800 L 207.200 44.800 207.200 51.800 M266.800 51.800 L 266.800 58.800 259.200 58.800 L 251.600 58.800 251.600 51.800 L 251.600 44.800 259.200 44.800 L 266.800 44.800 266.800 51.800 M355.200 67.000 L 355.200 89.200 333.000 89.200 L 310.800 89.200 310.800 67.000 L 310.800 44.800 333.000 44.800 L 355.200 44.800 355.200 67.000 M103.600 155.800 L 103.600 163.200 111.200 163.200 L 118.800 163.200 118.800 155.800 L 118.800 148.400 111.200 148.400 L 103.600 148.400 103.600 155.800 M341.200 155.800 L 341.200 163.200 348.200 163.200 L 355.200 163.200 355.200 155.800 L 355.200 148.400 348.200 148.400 L 341.200 148.400 341.200 155.800 M177.600 170.391 L 177.600 177.582 170.500 177.691 L 163.400 177.800 163.291 185.300 L 163.182 192.800 155.791 192.800 L 148.400 192.800 148.400 178.000 L 148.400 163.200 163.000 163.200 L 177.600 163.200 177.600 170.391 M296.400 185.191 L 296.400 207.200 281.600 207.200 L 266.800 207.200 266.800 192.391 L 266.800 177.582 259.300 177.691 L 251.800 177.800 251.800 192.400 L 251.800 207.000 259.300 207.109 L 266.800 207.218 266.800 214.800 L 266.800 222.382 259.300 222.491 L 251.800 222.600 251.800 229.600 L 251.800 236.600 259.300 236.709 L 266.800 236.818 266.800 244.209 L 266.800 251.600 274.000 251.600 L 281.200 251.600 281.200 244.200 L 281.200 236.800 274.000 236.800 L 266.800 236.800 266.800 229.600 L 266.800 222.400 288.809 222.400 L 310.818 222.400 310.709 229.500 L 310.600 236.600 303.500 236.709 L 296.400 236.818 296.400 244.209 L 296.400 251.600 311.200 251.600 L 326.000 251.600 326.000 237.000 L 326.000 222.400 340.600 222.400 L 355.200 222.400 355.200 214.800 L 355.200 207.200 340.600 207.200 L 326.000 207.200 326.000 200.009 L 326.000 192.818 333.500 192.709 L 341.000 192.600 341.000 185.200 L 341.000 177.800 325.909 177.695 L 310.818 177.590 310.709 170.495 L 310.600 163.400 303.500 163.291 L 296.400 163.182 296.400 185.191 M103.600 185.191 L 103.600 192.800 96.400 192.800 L 89.200 192.800 89.200 200.000 L 89.200 207.200 81.591 207.200 L 73.982 207.200 74.091 214.700 L 74.200 222.200 81.700 222.309 L 89.200 222.418 89.200 214.809 L 89.200 207.200 96.400 207.200 L 103.600 207.200 103.600 214.805 L 103.600 222.410 118.300 222.305 L 133.000 222.200 133.109 214.700 L 133.218 207.200 118.409 207.200 L 103.600 207.200 103.600 200.000 L 103.600 192.800 111.209 192.800 L 118.818 192.800 118.709 185.300 L 118.600 177.800 111.100 177.691 L 103.600 177.582 103.600 185.191 M207.200 185.195 L 207.200 192.800 200.000 192.800 L 192.800 192.800 192.800 200.000 L 192.800 207.200 185.200 207.200 L 177.600 207.200 177.600 214.800 L 177.600 222.400 170.400 222.400 L 163.200 222.400 163.200 237.000 L 163.200 251.600 170.400 251.600 L 177.600 251.600 177.600 266.400 L 177.600 281.200 170.400 281.200 L 163.200 281.200 163.200 274.000 L 163.200 266.800 155.800 266.800 L 148.400 266.800 148.400 274.000 L 148.400 281.200 155.800 281.200 L 163.200 281.200 163.200 296.000 L 163.200 310.800 155.800 310.800 L 148.400 310.800 148.400 318.400 L 148.400 326.000 155.791 326.000 L 163.182 326.000 163.291 333.500 L 163.400 341.000 178.000 341.000 L 192.600 341.000 192.709 333.500 L 192.818 326.000 200.000 326.000 L 207.182 326.000 207.291 333.500 L 207.400 341.000 214.800 341.000 L 222.200 341.000 222.309 333.500 L 222.418 326.000 214.809 326.000 L 207.200 326.000 207.200 318.409 L 207.200 310.818 214.700 310.709 L 222.200 310.600 222.200 296.000 L 222.200 281.400 214.700 281.291 L 207.200 281.182 207.200 273.986 L 207.200 266.790 221.900 266.895 L 236.600 267.000 236.703 296.500 L 236.805 326.000 244.203 326.000 L 251.600 326.000 251.600 288.800 L 251.600 251.600 237.000 251.600 L 222.400 251.600 222.400 229.409 L 222.400 207.218 229.500 207.109 L 236.600 207.000 236.600 192.400 L 236.600 177.800 221.900 177.695 L 207.200 177.590 207.200 185.195 M207.105 221.900 L 207.000 236.600 199.900 236.709 L 192.800 236.818 192.800 244.200 L 192.800 251.582 199.900 251.691 L 207.000 251.800 207.109 259.300 L 207.218 266.800 200.009 266.800 L 192.800 266.800 192.800 259.200 L 192.800 251.600 185.200 251.600 L 177.600 251.600 177.600 237.000 L 177.600 222.400 185.200 222.400 L 192.800 222.400 192.800 214.800 L 192.800 207.200 200.005 207.200 L 207.210 207.200 207.105 221.900 M326.000 214.800 L 326.000 222.400 318.400 222.400 L 310.800 222.400 310.800 214.800 L 310.800 207.200 318.400 207.200 L 326.000 207.200 326.000 214.800 M44.600 259.200 L 44.600 266.600 29.900 266.705 L 15.200 266.810 15.200 259.472 C 15.200 255.436,15.322 252.011,15.472 251.862 C 15.621 251.712,22.236 251.637,30.172 251.695 L 44.600 251.800 44.600 259.200 M266.985 267.297 C 266.879 267.573,266.839 277.430,266.896 289.200 L 267.000 310.600 288.903 310.703 L 310.807 310.807 310.703 288.903 L 310.600 267.000 288.889 266.897 C 271.733 266.815,267.137 266.899,266.985 267.297 M326.000 273.991 L 326.000 281.200 333.609 281.200 L 341.218 281.200 341.109 274.100 L 341.000 267.000 333.500 266.891 L 326.000 266.782 326.000 273.991 M118.702 333.100 L 118.803 384.800 67.002 384.800 L 15.200 384.800 15.200 332.998 L 15.200 281.197 66.900 281.298 L 118.600 281.400 118.702 333.100 M296.400 288.800 L 296.400 296.400 288.800 296.400 L 281.200 296.400 281.200 289.067 C 281.200 285.033,281.320 281.613,281.467 281.467 C 281.613 281.320,285.033 281.200,289.067 281.200 L 296.400 281.200 296.400 288.800 M29.600 333.400 L 29.600 370.400 66.600 370.400 L 103.600 370.400 103.600 333.400 L 103.600 296.400 66.600 296.400 L 29.600 296.400 29.600 333.400 M207.200 303.600 L 207.200 310.800 200.000 310.800 L 192.800 310.800 192.800 318.400 L 192.800 326.000 178.000 326.000 L 163.200 326.000 163.200 318.400 L 163.200 310.800 178.000 310.800 L 192.800 310.800 192.800 303.600 L 192.800 296.400 200.000 296.400 L 207.200 296.400 207.200 303.600 M89.200 333.000 L 89.200 355.200 67.000 355.200 L 44.800 355.200 44.800 333.000 L 44.800 310.800 67.000 310.800 L 89.200 310.800 89.200 333.000 M326.000 318.391 L 326.000 326.000 311.191 326.000 L 296.382 326.000 296.491 333.500 L 296.600 341.000 303.700 341.109 L 310.800 341.218 310.800 348.209 L 310.800 355.200 333.000 355.200 L 355.200 355.200 355.200 348.205 L 355.200 341.210 340.700 341.105 L 326.200 341.000 326.091 333.509 L 325.982 326.018 333.491 325.909 L 341.000 325.800 341.000 318.400 L 341.000 311.000 333.500 310.891 L 326.000 310.782 326.000 318.391 M193.076 355.458 C 192.924 355.609,192.800 359.033,192.800 363.067 L 192.800 370.400 200.009 370.400 L 207.218 370.400 207.109 362.900 L 207.000 355.400 200.176 355.291 C 196.422 355.231,193.227 355.306,193.076 355.458 M251.600 377.600 L 251.600 384.800 244.200 384.800 L 236.800 384.800 236.800 377.600 L 236.800 370.400 244.200 370.400 L 251.600 370.400 251.600 377.600 " stroke="none" fill="#fcfcfc" fill-rule="evenodd"></path><path id="path1" d="M15.200 67.002 L 15.200 118.803 66.900 118.702 L 118.600 118.600 118.702 66.900 L 118.803 15.200 67.002 15.200 L 15.200 15.200 15.200 67.002 M133.200 44.582 L 133.200 73.982 140.700 74.091 L 148.200 74.200 148.200 81.600 L 148.200 89.000 140.700 89.109 L 133.200 89.218 133.200 104.018 L 133.200 118.818 140.700 118.709 L 148.200 118.600 148.309 111.100 L 148.418 103.600 155.805 103.600 L 163.193 103.600 163.297 125.900 L 163.400 148.200 170.400 148.200 L 177.400 148.200 177.509 140.700 L 177.618 133.200 185.200 133.200 L 192.782 133.200 192.891 140.700 L 193.000 148.200 200.000 148.200 L 207.000 148.200 207.109 140.700 L 207.218 133.200 200.009 133.200 L 192.800 133.200 192.800 126.009 L 192.800 118.818 199.900 118.709 L 207.000 118.600 207.109 111.100 L 207.218 103.600 200.009 103.600 L 192.800 103.600 192.800 111.209 L 192.800 118.818 185.300 118.709 L 177.800 118.600 177.600 88.800 L 177.400 59.000 170.300 58.891 L 163.200 58.782 163.200 51.791 L 163.200 44.800 155.805 44.800 L 148.410 44.800 148.305 30.100 L 148.200 15.400 140.700 15.291 L 133.200 15.182 133.200 44.582 M207.109 22.300 L 207.000 29.400 192.291 29.505 L 177.582 29.610 177.691 37.105 L 177.800 44.600 185.300 44.709 L 192.800 44.818 192.800 67.009 L 192.800 89.200 200.000 89.200 L 207.200 89.200 207.200 81.591 L 207.200 73.982 214.700 74.091 L 222.200 74.200 222.302 118.691 L 222.403 163.182 214.902 163.291 L 207.400 163.400 207.291 170.491 L 207.182 177.582 200.091 177.691 L 193.000 177.800 192.891 185.291 L 192.782 192.782 185.291 192.891 L 177.800 193.000 177.691 200.091 L 177.582 207.182 170.491 207.291 L 163.400 207.400 163.291 214.900 L 163.182 222.400 155.800 222.400 L 148.418 222.400 148.309 214.900 L 148.200 207.400 140.700 207.291 L 133.200 207.182 133.200 177.791 L 133.200 148.400 126.000 148.400 L 118.800 148.400 118.800 140.800 L 118.800 133.200 96.409 133.200 L 74.018 133.200 73.909 140.700 L 73.800 148.200 59.309 148.305 L 44.818 148.410 44.709 140.905 L 44.600 133.400 29.891 133.295 L 15.182 133.190 15.291 140.695 L 15.400 148.200 22.500 148.309 L 29.600 148.418 29.600 155.807 L 29.600 163.195 59.300 163.297 L 89.000 163.400 89.105 178.100 L 89.210 192.800 67.014 192.800 L 44.818 192.800 44.709 185.300 L 44.600 177.800 29.900 177.695 L 15.200 177.590 15.200 200.004 L 15.200 222.418 22.300 222.309 L 29.400 222.200 29.505 207.500 L 29.610 192.800 37.205 192.800 L 44.800 192.800 44.800 214.800 L 44.800 236.800 51.795 236.800 L 58.790 236.800 58.895 251.700 L 59.000 266.600 66.500 266.709 L 74.000 266.818 74.000 251.809 L 74.000 236.800 81.600 236.800 L 89.200 236.800 89.200 251.800 L 89.200 266.800 104.009 266.800 L 118.818 266.800 118.709 259.300 L 118.600 251.800 111.100 251.691 L 103.600 251.582 103.600 244.188 L 103.600 236.793 125.900 236.897 L 148.200 237.000 148.309 244.291 L 148.418 251.582 140.909 251.691 L 133.400 251.800 133.295 266.500 L 133.190 281.200 140.804 281.200 L 148.418 281.200 148.309 288.700 L 148.200 296.200 140.700 296.309 L 133.200 296.418 133.200 311.209 L 133.200 326.000 140.800 326.000 L 148.400 326.000 148.400 340.591 L 148.400 355.182 155.700 355.291 L 163.000 355.400 163.109 362.900 L 163.218 370.400 155.818 370.400 L 148.418 370.400 148.309 362.900 L 148.200 355.400 140.800 355.400 L 133.400 355.400 133.295 370.100 L 133.190 384.800 155.386 384.800 L 177.582 384.800 177.691 377.700 L 177.800 370.600 185.300 370.491 L 192.800 370.382 192.800 377.591 L 192.800 384.800 207.595 384.800 L 222.390 384.800 222.495 370.100 L 222.600 355.400 229.700 355.291 L 236.800 355.182 236.800 348.191 L 236.800 341.200 244.200 341.200 L 251.600 341.200 251.600 348.195 L 251.600 355.190 266.300 355.295 L 281.000 355.400 281.109 362.891 L 281.218 370.381 274.109 370.491 L 267.000 370.600 266.891 377.700 L 266.782 384.800 273.991 384.800 L 281.200 384.800 281.200 377.597 L 281.200 370.395 311.100 370.497 L 341.000 370.600 341.109 377.700 L 341.218 384.800 363.009 384.800 L 384.800 384.800 384.800 377.600 L 384.800 370.400 377.600 370.400 L 370.400 370.400 370.400 355.809 L 370.400 341.218 377.500 341.109 L 384.600 341.000 384.703 318.700 L 384.807 296.400 363.003 296.400 L 341.200 296.400 341.200 288.800 L 341.200 281.200 348.195 281.200 L 355.190 281.200 355.295 266.500 L 355.400 251.800 362.900 251.691 L 370.400 251.582 370.400 244.200 L 370.400 236.818 362.900 236.709 L 355.400 236.600 355.291 229.500 L 355.182 222.400 362.782 222.400 L 370.382 222.400 370.491 214.900 L 370.600 207.400 377.700 207.291 L 384.800 207.182 384.800 200.000 L 384.800 192.818 377.700 192.709 L 370.600 192.600 370.491 185.109 L 370.382 177.618 362.891 177.509 L 355.400 177.400 355.291 170.300 L 355.182 163.200 362.791 163.200 L 370.400 163.200 370.400 155.809 L 370.400 148.418 377.500 148.309 L 384.600 148.200 384.709 140.700 L 384.818 133.200 355.418 133.200 L 326.018 133.200 325.909 140.700 L 325.800 148.200 318.400 148.200 L 311.000 148.200 310.891 140.700 L 310.782 133.200 303.591 133.200 L 296.400 133.200 296.400 148.191 L 296.400 163.182 288.900 163.291 L 281.400 163.400 281.291 170.500 L 281.182 177.600 273.991 177.600 L 266.800 177.600 266.800 163.005 L 266.800 148.410 251.900 148.305 L 237.000 148.200 236.897 118.700 L 236.795 89.200 244.194 89.200 L 251.593 89.200 251.697 111.100 L 251.800 133.000 259.300 133.109 L 266.800 133.218 266.800 103.609 L 266.800 74.000 251.800 74.000 L 236.800 74.000 236.800 59.400 L 236.800 44.800 229.600 44.800 L 222.400 44.800 222.400 30.000 L 222.400 15.200 214.809 15.200 L 207.218 15.200 207.109 22.300 M236.800 22.400 L 236.800 29.600 251.800 29.600 L 266.800 29.600 266.800 22.400 L 266.800 15.200 251.800 15.200 L 236.800 15.200 236.800 22.400 M281.298 66.900 L 281.400 118.600 333.100 118.702 L 384.800 118.803 384.800 67.002 L 384.800 15.200 332.998 15.200 L 281.197 15.200 281.298 66.900 M103.600 66.600 L 103.600 103.600 66.600 103.600 L 29.600 103.600 29.600 66.600 L 29.600 29.600 66.600 29.600 L 103.600 29.600 103.600 66.600 M370.400 66.600 L 370.400 103.600 333.400 103.600 L 296.400 103.600 296.400 66.600 L 296.400 29.600 333.400 29.600 L 370.400 29.600 370.400 66.600 M44.800 67.000 L 44.800 89.200 67.000 89.200 L 89.200 89.200 89.200 67.000 L 89.200 44.800 67.000 44.800 L 44.800 44.800 44.800 67.000 M222.400 51.800 L 222.400 58.800 214.800 58.800 L 207.200 58.800 207.200 51.800 L 207.200 44.800 214.800 44.800 L 222.400 44.800 222.400 51.800 M251.600 51.800 L 251.600 58.800 259.200 58.800 L 266.800 58.800 266.800 51.800 L 266.800 44.800 259.200 44.800 L 251.600 44.800 251.600 51.800 M310.800 67.000 L 310.800 89.200 333.000 89.200 L 355.200 89.200 355.200 67.000 L 355.200 44.800 333.000 44.800 L 310.800 44.800 310.800 67.000 M118.800 155.800 L 118.800 163.200 111.200 163.200 L 103.600 163.200 103.600 155.800 L 103.600 148.400 111.200 148.400 L 118.800 148.400 118.800 155.800 M355.200 155.800 L 355.200 163.200 348.200 163.200 L 341.200 163.200 341.200 155.800 L 341.200 148.400 348.200 148.400 L 355.200 148.400 355.200 155.800 M148.400 178.000 L 148.400 192.800 155.791 192.800 L 163.182 192.800 163.291 185.300 L 163.400 177.800 170.500 177.691 L 177.600 177.582 177.600 170.391 L 177.600 163.200 163.000 163.200 L 148.400 163.200 148.400 178.000 M310.709 170.495 L 310.818 177.590 325.909 177.695 L 341.000 177.800 341.000 185.200 L 341.000 192.600 333.500 192.709 L 326.000 192.818 326.000 200.009 L 326.000 207.200 340.600 207.200 L 355.200 207.200 355.200 214.800 L 355.200 222.400 340.600 222.400 L 326.000 222.400 326.000 237.000 L 326.000 251.600 311.200 251.600 L 296.400 251.600 296.400 244.209 L 296.400 236.818 303.500 236.709 L 310.600 236.600 310.709 229.500 L 310.818 222.400 288.809 222.400 L 266.800 222.400 266.800 229.600 L 266.800 236.800 274.000 236.800 L 281.200 236.800 281.200 244.200 L 281.200 251.600 274.000 251.600 L 266.800 251.600 266.800 244.209 L 266.800 236.818 259.300 236.709 L 251.800 236.600 251.800 229.600 L 251.800 222.600 259.300 222.491 L 266.800 222.382 266.800 214.800 L 266.800 207.218 259.300 207.109 L 251.800 207.000 251.800 192.400 L 251.800 177.800 259.300 177.691 L 266.800 177.582 266.800 192.391 L 266.800 207.200 281.600 207.200 L 296.400 207.200 296.400 185.191 L 296.400 163.182 303.500 163.291 L 310.600 163.400 310.709 170.495 M118.709 185.300 L 118.818 192.800 111.209 192.800 L 103.600 192.800 103.600 200.000 L 103.600 207.200 118.409 207.200 L 133.218 207.200 133.109 214.700 L 133.000 222.200 118.300 222.305 L 103.600 222.410 103.600 214.805 L 103.600 207.200 96.400 207.200 L 89.200 207.200 89.200 214.809 L 89.200 222.418 81.700 222.309 L 74.200 222.200 74.091 214.700 L 73.982 207.200 81.591 207.200 L 89.200 207.200 89.200 200.000 L 89.200 192.800 96.400 192.800 L 103.600 192.800 103.600 185.191 L 103.600 177.582 111.100 177.691 L 118.600 177.800 118.709 185.300 M236.600 192.400 L 236.600 207.000 229.500 207.109 L 222.400 207.218 222.400 229.409 L 222.400 251.600 237.000 251.600 L 251.600 251.600 251.600 288.800 L 251.600 326.000 244.203 326.000 L 236.805 326.000 236.703 296.500 L 236.600 267.000 221.900 266.895 L 207.200 266.790 207.200 273.986 L 207.200 281.182 214.700 281.291 L 222.200 281.400 222.200 296.000 L 222.200 310.600 214.700 310.709 L 207.200 310.818 207.200 318.409 L 207.200 326.000 214.809 326.000 L 222.418 326.000 222.309 333.500 L 222.200 341.000 214.800 341.000 L 207.400 341.000 207.291 333.500 L 207.182 326.000 200.000 326.000 L 192.818 326.000 192.709 333.500 L 192.600 341.000 178.000 341.000 L 163.400 341.000 163.291 333.500 L 163.182 326.000 155.791 326.000 L 148.400 326.000 148.400 318.400 L 148.400 310.800 155.800 310.800 L 163.200 310.800 163.200 296.000 L 163.200 281.200 155.800 281.200 L 148.400 281.200 148.400 274.000 L 148.400 266.800 155.800 266.800 L 163.200 266.800 163.200 274.000 L 163.200 281.200 170.400 281.200 L 177.600 281.200 177.600 266.400 L 177.600 251.600 170.400 251.600 L 163.200 251.600 163.200 237.000 L 163.200 222.400 170.400 222.400 L 177.600 222.400 177.600 214.800 L 177.600 207.200 185.200 207.200 L 192.800 207.200 192.800 200.000 L 192.800 192.800 200.000 192.800 L 207.200 192.800 207.200 185.195 L 207.200 177.590 221.900 177.695 L 236.600 177.800 236.600 192.400 M192.800 214.800 L 192.800 222.400 185.200 222.400 L 177.600 222.400 177.600 237.000 L 177.600 251.600 185.200 251.600 L 192.800 251.600 192.800 259.200 L 192.800 266.800 200.009 266.800 L 207.218 266.800 207.109 259.300 L 207.000 251.800 199.900 251.691 L 192.800 251.582 192.800 244.200 L 192.800 236.818 199.900 236.709 L 207.000 236.600 207.105 221.900 L 207.210 207.200 200.005 207.200 L 192.800 207.200 192.800 214.800 M310.800 214.800 L 310.800 222.400 318.400 222.400 L 326.000 222.400 326.000 214.800 L 326.000 207.200 318.400 207.200 L 310.800 207.200 310.800 214.800 M15.472 251.862 C 15.322 252.011,15.200 255.436,15.200 259.472 L 15.200 266.810 29.900 266.705 L 44.600 266.600 44.600 259.200 L 44.600 251.800 30.172 251.695 C 22.236 251.637,15.621 251.712,15.472 251.862 M310.703 288.903 L 310.807 310.807 288.903 310.703 L 267.000 310.600 266.896 289.200 C 266.839 277.430,266.879 267.573,266.985 267.297 C 267.137 266.899,271.733 266.815,288.889 266.897 L 310.600 267.000 310.703 288.903 M341.109 274.100 L 341.218 281.200 333.609 281.200 L 326.000 281.200 326.000 273.991 L 326.000 266.782 333.500 266.891 L 341.000 267.000 341.109 274.100 M15.200 332.998 L 15.200 384.800 67.002 384.800 L 118.803 384.800 118.702 333.100 L 118.600 281.400 66.900 281.298 L 15.200 281.197 15.200 332.998 M281.467 281.467 C 281.320 281.613,281.200 285.033,281.200 289.067 L 281.200 296.400 288.800 296.400 L 296.400 296.400 296.400 288.800 L 296.400 281.200 289.067 281.200 C 285.033 281.200,281.613 281.320,281.467 281.467 M103.600 333.400 L 103.600 370.400 66.600 370.400 L 29.600 370.400 29.600 333.400 L 29.600 296.400 66.600 296.400 L 103.600 296.400 103.600 333.400 M192.800 303.600 L 192.800 310.800 178.000 310.800 L 163.200 310.800 163.200 318.400 L 163.200 326.000 178.000 326.000 L 192.800 326.000 192.800 318.400 L 192.800 310.800 200.000 310.800 L 207.200 310.800 207.200 303.600 L 207.200 296.400 200.000 296.400 L 192.800 296.400 192.800 303.600 M44.800 333.000 L 44.800 355.200 67.000 355.200 L 89.200 355.200 89.200 333.000 L 89.200 310.800 67.000 310.800 L 44.800 310.800 44.800 333.000 M341.000 318.400 L 341.000 325.800 333.491 325.909 L 325.982 326.018 326.091 333.509 L 326.200 341.000 340.700 341.105 L 355.200 341.210 355.200 348.205 L 355.200 355.200 333.000 355.200 L 310.800 355.200 310.800 348.209 L 310.800 341.218 303.700 341.109 L 296.600 341.000 296.491 333.500 L 296.382 326.000 311.191 326.000 L 326.000 326.000 326.000 318.391 L 326.000 310.782 333.500 310.891 L 341.000 311.000 341.000 318.400 M207.109 362.900 L 207.218 370.400 200.009 370.400 L 192.800 370.400 192.800 363.067 C 192.800 359.033,192.924 355.609,193.076 355.458 C 193.227 355.306,196.422 355.231,200.176 355.291 L 207.000 355.400 207.109 362.900 M236.800 377.600 L 236.800 384.800 244.200 384.800 L 251.600 384.800 251.600 377.600 L 251.600 370.400 244.200 370.400 L 236.800 370.400 236.800 377.600 " stroke="none" fill="#040404" fill-rule="evenodd"></path></g></svg>